<svg width="512" height="512" viewBox="0 0 512 512" fill="none" xmlns="http://www.w3.org/2000/svg">
  <rect width="512" height="512" rx="64" fill="#2563eb"/>
  <g transform="translate(128, 128)">
    <path d="M128 64C128 99.346 99.346 128 64 128C28.654 128 0 99.346 0 64C0 28.654 28.654 0 64 0C99.346 0 128 28.654 128 64Z" fill="white"/>
    <path d="M64 21.333C52.218 21.333 42.667 30.884 42.667 42.667V85.333C42.667 97.116 52.218 106.667 64 106.667C75.782 106.667 85.333 97.116 85.333 85.333V42.667C85.333 30.884 75.782 21.333 64 21.333Z" fill="#2563eb"/>
    <rect x="53.333" y="32" width="21.333" height="10.667" rx="5.333" fill="white"/>
    <rect x="53.333" y="53.333" width="21.333" height="10.667" rx="5.333" fill="white"/>
    <rect x="53.333" y="74.667" width="21.333" height="10.667" rx="5.333" fill="white"/>
  </g>
</svg>