<svg width="192" height="192" viewBox="0 0 192 192" fill="none" xmlns="http://www.w3.org/2000/svg">
  <rect width="192" height="192" rx="24" fill="#2563eb"/>
  <g transform="translate(48, 48)">
    <path d="M48 24C48 37.255 37.255 48 24 48C10.745 48 0 37.255 0 24C0 10.745 10.745 0 24 0C37.255 0 48 10.745 48 24Z" fill="white"/>
    <path d="M24 8C19.582 8 16 11.582 16 16V32C16 36.418 19.582 40 24 40C28.418 40 32 36.418 32 32V16C32 11.582 28.418 8 24 8Z" fill="#2563eb"/>
    <rect x="20" y="12" width="8" height="4" rx="2" fill="white"/>
    <rect x="20" y="20" width="8" height="4" rx="2" fill="white"/>
    <rect x="20" y="28" width="8" height="4" rx="2" fill="white"/>
  </g>
</svg>